<mxfile host="drawio-plugin" modified="2023-12-01T16:10:21.734Z" agent="5.0 (Windows NT 10.0; Win64; x64) AppleWebKit/537.36 (KHTML, like Gecko) Chrome/111.0.0.0 Safari/537.36" etag="a6eM3bOH4ZfG3gNy4GxA" version="20.5.3" type="embed"><diagram name="Seite-1" id="cxQT5OqkQS1NuZ_NjJlK"><mxGraphModel dx="984" dy="757" grid="1" gridSize="10" guides="1" tooltips="1" connect="1" arrows="1" fold="1" page="1" pageScale="1" pageWidth="827" pageHeight="1169" math="0" shadow="0"><root><mxCell id="0"/><mxCell id="1" parent="0"/><mxCell id="LWds2frH-b3ze7NJfMs8-12" style="edgeStyle=orthogonalEdgeStyle;rounded=0;orthogonalLoop=1;jettySize=auto;html=1;entryX=0.25;entryY=1;entryDx=0;entryDy=0;exitX=0.25;exitY=0;exitDx=0;exitDy=0;endSize=6;jumpSize=1;jumpStyle=line;" parent="1" source="LWds2frH-b3ze7NJfMs8-3" target="LWds2frH-b3ze7NJfMs8-5" edge="1"><mxGeometry relative="1" as="geometry"/></mxCell><mxCell id="LWds2frH-b3ze7NJfMs8-13" value="authentication failed" style="edgeLabel;html=1;align=center;verticalAlign=middle;resizable=0;points=[];" parent="LWds2frH-b3ze7NJfMs8-12" vertex="1" connectable="0"><mxGeometry x="0.168" relative="1" as="geometry"><mxPoint x="-114" y="30" as="offset"/></mxGeometry></mxCell><mxCell id="LWds2frH-b3ze7NJfMs8-3" value="" style="swimlane;startSize=0;" parent="1" vertex="1"><mxGeometry x="240" y="270" width="1000" height="680" as="geometry"/></mxCell><mxCell id="HNo84HmTs7kHLPHxOLKO-17" style="edgeStyle=orthogonalEdgeStyle;rounded=0;orthogonalLoop=1;jettySize=auto;html=1;entryX=0.5;entryY=0;entryDx=0;entryDy=0;" parent="LWds2frH-b3ze7NJfMs8-3" source="LWds2frH-b3ze7NJfMs8-4" target="LWds2frH-b3ze7NJfMs8-30" edge="1"><mxGeometry relative="1" as="geometry"/></mxCell><mxCell id="LWds2frH-b3ze7NJfMs8-4" value="&lt;font style=&quot;font-size: 10px;&quot;&gt;/&lt;/font&gt;" style="rounded=0;whiteSpace=wrap;html=1;" parent="LWds2frH-b3ze7NJfMs8-3" vertex="1"><mxGeometry x="80" y="40" width="120" height="40" as="geometry"/></mxCell><mxCell id="LWds2frH-b3ze7NJfMs8-14" value="&lt;font style=&quot;font-size: 10px;&quot;&gt;/logout&lt;/font&gt;" style="shape=ext;margin=3;double=1;whiteSpace=wrap;html=1;align=center;" parent="LWds2frH-b3ze7NJfMs8-3" vertex="1"><mxGeometry x="680" y="40" width="120" height="40" as="geometry"/></mxCell><mxCell id="LWds2frH-b3ze7NJfMs8-18" style="edgeStyle=orthogonalEdgeStyle;rounded=0;orthogonalLoop=1;jettySize=auto;html=1;entryX=0;entryY=0.5;entryDx=0;entryDy=0;" parent="LWds2frH-b3ze7NJfMs8-3" source="LWds2frH-b3ze7NJfMs8-17" target="LWds2frH-b3ze7NJfMs8-4" edge="1"><mxGeometry relative="1" as="geometry"/></mxCell><mxCell id="LWds2frH-b3ze7NJfMs8-17" value="" style="ellipse;whiteSpace=wrap;html=1;aspect=fixed;" parent="LWds2frH-b3ze7NJfMs8-3" vertex="1"><mxGeometry x="20" y="45" width="30" height="30" as="geometry"/></mxCell><mxCell id="HNo84HmTs7kHLPHxOLKO-20" style="edgeStyle=orthogonalEdgeStyle;rounded=0;orthogonalLoop=1;jettySize=auto;html=1;entryX=0.25;entryY=0;entryDx=0;entryDy=0;exitX=0.25;exitY=1;exitDx=0;exitDy=0;" parent="LWds2frH-b3ze7NJfMs8-3" source="LWds2frH-b3ze7NJfMs8-30" target="HNo84HmTs7kHLPHxOLKO-18" edge="1"><mxGeometry relative="1" as="geometry"/></mxCell><mxCell id="LWds2frH-b3ze7NJfMs8-30" value="&lt;span style=&quot;font-size: 10px;&quot;&gt;/subject/&amp;lt;id_:int&amp;gt;&lt;/span&gt;" style="whiteSpace=wrap;html=1;align=center;" parent="LWds2frH-b3ze7NJfMs8-3" vertex="1"><mxGeometry x="280" y="130" width="120" height="40" as="geometry"/></mxCell><mxCell id="LWds2frH-b3ze7NJfMs8-63" value="Routes used in the base template will not be listed here" style="text;html=1;align=center;verticalAlign=middle;resizable=0;points=[];autosize=1;strokeColor=none;fillColor=none;" parent="LWds2frH-b3ze7NJfMs8-3" vertex="1"><mxGeometry x="680" y="650" width="320" height="30" as="geometry"/></mxCell><mxCell id="HNo84HmTs7kHLPHxOLKO-21" style="edgeStyle=orthogonalEdgeStyle;rounded=0;orthogonalLoop=1;jettySize=auto;html=1;exitX=0.25;exitY=1;exitDx=0;exitDy=0;entryX=0.25;entryY=0;entryDx=0;entryDy=0;" parent="LWds2frH-b3ze7NJfMs8-3" source="HNo84HmTs7kHLPHxOLKO-18" target="HNo84HmTs7kHLPHxOLKO-19" edge="1"><mxGeometry relative="1" as="geometry"/></mxCell><mxCell id="HNo84HmTs7kHLPHxOLKO-25" style="edgeStyle=orthogonalEdgeStyle;rounded=0;orthogonalLoop=1;jettySize=auto;html=1;entryX=0.75;entryY=1;entryDx=0;entryDy=0;exitX=0.75;exitY=0;exitDx=0;exitDy=0;" parent="LWds2frH-b3ze7NJfMs8-3" source="HNo84HmTs7kHLPHxOLKO-18" target="LWds2frH-b3ze7NJfMs8-30" edge="1"><mxGeometry relative="1" as="geometry"/></mxCell><mxCell id="HNo84HmTs7kHLPHxOLKO-18" value="&lt;span style=&quot;font-size: 10px;&quot;&gt;/exercise/&amp;lt;id_:int&amp;gt;&lt;/span&gt;" style="whiteSpace=wrap;html=1;align=center;" parent="LWds2frH-b3ze7NJfMs8-3" vertex="1"><mxGeometry x="280" y="210" width="120" height="40" as="geometry"/></mxCell><mxCell id="HNo84HmTs7kHLPHxOLKO-23" style="edgeStyle=orthogonalEdgeStyle;rounded=0;orthogonalLoop=1;jettySize=auto;html=1;entryX=0.5;entryY=0;entryDx=0;entryDy=0;" parent="LWds2frH-b3ze7NJfMs8-3" source="HNo84HmTs7kHLPHxOLKO-19" target="HNo84HmTs7kHLPHxOLKO-22" edge="1"><mxGeometry relative="1" as="geometry"/></mxCell><mxCell id="HNo84HmTs7kHLPHxOLKO-24" style="edgeStyle=orthogonalEdgeStyle;rounded=0;orthogonalLoop=1;jettySize=auto;html=1;entryX=0.75;entryY=1;entryDx=0;entryDy=0;exitX=0.75;exitY=0;exitDx=0;exitDy=0;" parent="LWds2frH-b3ze7NJfMs8-3" source="HNo84HmTs7kHLPHxOLKO-19" target="HNo84HmTs7kHLPHxOLKO-18" edge="1"><mxGeometry relative="1" as="geometry"/></mxCell><mxCell id="3" style="edgeStyle=orthogonalEdgeStyle;rounded=0;orthogonalLoop=1;jettySize=auto;html=1;entryX=0.5;entryY=0;entryDx=0;entryDy=0;exitX=0.25;exitY=1;exitDx=0;exitDy=0;" edge="1" parent="LWds2frH-b3ze7NJfMs8-3" source="HNo84HmTs7kHLPHxOLKO-19" target="2"><mxGeometry relative="1" as="geometry"/></mxCell><mxCell id="HNo84HmTs7kHLPHxOLKO-19" value="&lt;span style=&quot;font-size: 10px;&quot;&gt;/task/&amp;lt;id_:int&amp;gt;&lt;/span&gt;" style="whiteSpace=wrap;html=1;align=center;" parent="LWds2frH-b3ze7NJfMs8-3" vertex="1"><mxGeometry x="280" y="290" width="120" height="40" as="geometry"/></mxCell><mxCell id="HNo84HmTs7kHLPHxOLKO-22" value="&lt;font style=&quot;font-size: 10px;&quot;&gt;File Download&lt;/font&gt;" style="shape=ext;margin=3;double=1;whiteSpace=wrap;html=1;align=center;" parent="LWds2frH-b3ze7NJfMs8-3" vertex="1"><mxGeometry x="40" y="410" width="120" height="40" as="geometry"/></mxCell><mxCell id="HNo84HmTs7kHLPHxOLKO-26" value="&lt;span style=&quot;font-size: 10px;&quot;&gt;/settings&lt;/span&gt;" style="whiteSpace=wrap;html=1;align=center;" parent="LWds2frH-b3ze7NJfMs8-3" vertex="1"><mxGeometry x="680" y="120" width="120" height="40" as="geometry"/></mxCell><mxCell id="2" value="&lt;font style=&quot;font-size: 10px;&quot;&gt;File Upload&lt;/font&gt;" style="shape=ext;margin=3;double=1;whiteSpace=wrap;html=1;align=center;" vertex="1" parent="LWds2frH-b3ze7NJfMs8-3"><mxGeometry x="200" y="410" width="120" height="40" as="geometry"/></mxCell><mxCell id="LWds2frH-b3ze7NJfMs8-5" value="&lt;font style=&quot;font-size: 10px;&quot;&gt;/login&lt;/font&gt;" style="rounded=0;whiteSpace=wrap;html=1;" parent="1" vertex="1"><mxGeometry x="600" y="80" width="120" height="40" as="geometry"/></mxCell><mxCell id="LWds2frH-b3ze7NJfMs8-10" value="&lt;font style=&quot;font-size: 10px;&quot;&gt;no Rendered site&lt;/font&gt;" style="shape=ext;margin=3;double=1;whiteSpace=wrap;html=1;align=center;" parent="1" vertex="1"><mxGeometry y="320" width="120" height="40" as="geometry"/></mxCell><mxCell id="LWds2frH-b3ze7NJfMs8-11" value="&lt;font style=&quot;font-size: 10px;&quot;&gt;Rendered site&lt;/font&gt;" style="whiteSpace=wrap;html=1;align=center;" parent="1" vertex="1"><mxGeometry y="400" width="120" height="40" as="geometry"/></mxCell><mxCell id="LWds2frH-b3ze7NJfMs8-15" style="edgeStyle=orthogonalEdgeStyle;rounded=0;orthogonalLoop=1;jettySize=auto;html=1;entryX=0.75;entryY=1;entryDx=0;entryDy=0;exitX=0.5;exitY=0;exitDx=0;exitDy=0;" parent="1" source="LWds2frH-b3ze7NJfMs8-14" target="LWds2frH-b3ze7NJfMs8-5" edge="1"><mxGeometry relative="1" as="geometry"><Array as="points"><mxPoint x="860" y="200"/><mxPoint x="588" y="200"/></Array></mxGeometry></mxCell><mxCell id="LWds2frH-b3ze7NJfMs8-16" value="manual logout" style="edgeLabel;html=1;align=center;verticalAlign=middle;resizable=0;points=[];" parent="LWds2frH-b3ze7NJfMs8-15" vertex="1" connectable="0"><mxGeometry x="-0.6916" relative="1" as="geometry"><mxPoint y="-41" as="offset"/></mxGeometry></mxCell></root></mxGraphModel></diagram></mxfile>